<?xml version="1.0"?><svg xmlns="http://www.w3.org/2000/svg"  viewBox="0 0 24 24" width="24px" height="24px">    <path d="M12,2C6.486,2,2,6.486,2,12s4.486,10,10,10s10-4.486,10-10S17.514,2,12,2z M13.66,14.839l-0.173,0.157 c-0.249,0.232-0.655,0.549-1.051,0.843c-0.259,0.193-0.613,0.193-0.872,0c-0.397-0.296-0.807-0.615-1.061-0.853l-0.165-0.15 C8.94,13.572,7.435,11.91,8.215,10.28C8.581,9.516,9.377,9.001,10.198,9c0.456,0,0.882,0.124,1.265,0.368L12,9.711l0.538-0.343 C12.921,9.124,13.346,9,13.802,9h0.003c0.818,0.001,1.614,0.516,1.98,1.28C16.566,11.91,15.06,13.572,13.66,14.839z"/></svg>